# xmcd
#
# Track frame offsets: 
#        150
#        16407
#        34575
#        45642
#        64095
#        81202
#        102350
#        123037
#        140547
#        158720
#        176722
#
# Disc length: 2557 seconds
#
# Revision: 6
# Processed by: cddbd v1.5.2PL0 Copyright (c) Steve Scherf et al.
# Submitted via: ExactAudioCopyFreeDBPlugin 1.0
#
DISCID=8809fb0b
DTITLE=蘇永康 - 不想獨自快樂
DYEAR=1998
DGENRE=Pop
TTITLE0=不想獨自快樂
TTITLE1=越吻越傷心
TTITLE2=傾情割引
TTITLE3=開玩笑
TTITLE4=小動作
TTITLE5=蘭桂坊的故事
TTITLE6=因我太好
TTITLE7=提我
TTITLE8=知己夜話
TTITLE9=蘇永康/黃耀明/雷頌德 - 紅白藍
TTITLE10=蘇永康/吳國敬 - 越吻越傷心 <with eddie and eugeng>
EXTD=
EXTT0=
EXTT1=
EXTT2=
EXTT3=
EXTT4=
EXTT5=
EXTT6=
EXTT7=
EXTT8=
EXTT9=
EXTT10=
PLAYORDER=
